<svg version="1.2" xmlns="http://www.w3.org/2000/svg" viewBox="0 0 1500 1000" width="1500" height="1000">
	<title>5815350-ai</title>
	<defs>
		<linearGradient id="g1" x1="0" y1="1000" x2="362.1" y2="559.8" gradientUnits="userSpaceOnUse">
			<stop offset="0" stop-color="#a8f6ff"/>
			<stop offset="1" stop-color="#8f99ff"/>
		</linearGradient>
		<linearGradient id="g2" x1="117.3" y1="-211.5" x2="400" y2="71.2" gradientUnits="userSpaceOnUse">
			<stop offset="0" stop-color="#fefefe" stop-opacity="0"/>
			<stop offset="1" stop-color="#fefefe" stop-opacity=".3"/>
		</linearGradient>
		<linearGradient id="g3" x1="1337.1" y1="571.9" x2="1711.6" y2="571.9" gradientUnits="userSpaceOnUse">
			<stop offset=".4" stop-color="#fefefe" stop-opacity="0"/>
			<stop offset="1" stop-color="#fefefe" stop-opacity=".6"/>
		</linearGradient>
		<linearGradient id="g4" x1="1270.4" y1="785.6" x2="1403.8" y2="785.6" gradientUnits="userSpaceOnUse">
			<stop offset=".4" stop-color="#fefefe" stop-opacity="0"/>
			<stop offset="1" stop-color="#fefefe" stop-opacity=".6"/>
		</linearGradient>
		<linearGradient id="g5" x1="634.9" y1="290.6" x2="701.7" y2="290.6" gradientUnits="userSpaceOnUse">
			<stop offset=".4" stop-color="#fefefe" stop-opacity="0"/>
			<stop offset="1" stop-color="#fefefe" stop-opacity=".6"/>
		</linearGradient>
	</defs>
	<style>
		tspan { white-space:pre } 
		.s0 { fill: url(#g1) } 
		.s1 { opacity: .7;fill: url(#g2);stroke: #ffffff;stroke-width: 2 } 
		.s2 { opacity: .7;fill: url(#g3);stroke: #ffffff;stroke-width: 2 } 
		.s3 { opacity: .7;fill: url(#g4);stroke: #ffffff;stroke-width: 2 } 
		.s4 { opacity: .7;fill: url(#g5);stroke: #ffffff } 
		.s5 { fill: #ffffff } 
	</style>
	<g id="Gradient Background">
		<g id="&lt;Clip Group&gt;">
			<g id="Frame">
				<path id="Background" class="s0" d="m0 604.1c96.2-25.9 383.5 240 632.6 151.3-105.6 79.2-68.8 112.6-68.8 244.6q-281.9 0-563.8 0 0-197.9 0-395.9zm0-285.7c187.9 0 174.2 241.4 362.1 241.4 0 95.3 374.4 117.7 270.5 195.6-249.1 88.7-536.4-177.2-632.6-151.3q0-142.8 0-285.7zm0-318.4q281.9 0 563.8 0c0 106.1-201.7 453.7-201.7 559.8-187.9 0-174.2-241.4-362.1-241.4q0-159.2 0-318.4zm632.6 755.4c216.9-77.2 133.5-449.1 424.8-443.1 0 0 197.1 555.7 197.1 687.7q-345.3 0-690.7 0c0-132-36.8-165.4 68.8-244.6zm-270.5-195.6c230.2 0 338.2-369.8 568.5-369.8 36.6 52-10.7 99.4 126.8 122.3-291.3-6-207.9 365.9-424.8 443.1 103.9-77.9-270.5-100.3-270.5-195.6zm201.7-559.8q345.4 0 690.7 0c-304.1 49.5-412.3 64.9-323.9 190-230.3 0-338.3 369.8-568.5 369.8 0-106.1 201.7-453.7 201.7-559.8zm493.6 312.3c148.2 3 360.8 291.8 442.6 291.8q0 198 0 395.9-122.8 0-245.5 0c0-132-197.1-687.7-197.1-687.7zm-126.8-122.3c81.8 0 487.6 128.4 569.4 128.4q0 142.9 0 285.7c-81.8 0-294.4-288.8-442.6-291.8-137.5-22.9-90.2-70.3-126.8-122.3zm323.9-190q122.7 0 245.5 0 0 159.2 0 318.4c-81.8 0-487.6-128.4-569.4-128.4-88.4-125.1 19.8-140.5 323.9-190z"/>
				<g id="Elipse" style="opacity: .6">
					<path id="&lt;Path&gt;" class="s1" d="m-106.2 85.3c0-111.4 90.3-201.6 201.6-201.6 111.3 0 201.6 90.2 201.6 201.6 0 111.3-90.3 201.6-201.6 201.6-111.3 0-201.6-90.3-201.6-201.6z"/>
					<path id="&lt;Path&gt;" class="s2" d="m1337.1 763.2c0-103.4 83.8-187.3 187.2-187.3 103.4 0 187.3 83.9 187.3 187.3 0 103.4-83.9 187.2-187.3 187.2-103.4 0-187.2-83.8-187.2-187.2z"/>
					<path id="&lt;Path&gt;" class="s3" d="m1270.4 856.4c0-36.9 29.8-66.8 66.7-66.8 36.8 0 66.7 29.9 66.7 66.8 0 36.8-29.9 66.7-66.7 66.7-36.9 0-66.7-29.9-66.7-66.7z"/>
					<path id="&lt;Path&gt;" class="s4" d="m634.9 327.9c0-18.4 15-33.3 33.4-33.3 18.4 0 33.4 14.9 33.4 33.3 0 18.4-15 33.4-33.4 33.4-18.4 0-33.4-15-33.4-33.4z"/>
				</g>
				<g id="Pattern">
					<g id="&lt;Group&gt;" style="opacity: .6">
						<path id="&lt;Path&gt;" class="s5" d="m1358 105.8c0-1.5 1.2-2.7 2.7-2.7 1.4 0 2.6 1.2 2.6 2.7 0 1.4-1.2 2.6-2.6 2.6-1.5 0-2.7-1.2-2.7-2.6z"/>
						<path id="&lt;Path&gt;" class="s5" d="m1382 105.8c0-1.5 1.2-2.7 2.7-2.7 1.5 0 2.7 1.2 2.7 2.7 0 1.4-1.2 2.6-2.7 2.6-1.5 0-2.7-1.2-2.7-2.6z"/>
						<path id="&lt;Path&gt;" class="s5" d="m1406.1 105.8c0-1.5 1.2-2.7 2.6-2.7 1.5 0 2.7 1.2 2.7 2.7 0 1.4-1.2 2.6-2.7 2.6-1.4 0-2.6-1.2-2.6-2.6z"/>
						<path id="&lt;Path&gt;" class="s5" d="m1435.4 105.8c0 1.4-1.2 2.6-2.6 2.6-1.5 0-2.7-1.2-2.7-2.6 0-1.5 1.2-2.7 2.7-2.7 1.4 0 2.6 1.2 2.6 2.7z"/>
						<path id="&lt;Path&gt;" class="s5" d="m1459.5 105.8c0 1.4-1.2 2.6-2.7 2.6-1.5 0-2.7-1.2-2.7-2.6 0-1.5 1.2-2.7 2.7-2.7 1.5 0 2.7 1.2 2.7 2.7z"/>
						<path id="&lt;Path&gt;" class="s5" d="m1478.2 105.8c0-1.5 1.2-2.7 2.6-2.7 1.5 0 2.7 1.2 2.7 2.7 0 1.4-1.2 2.6-2.7 2.6-1.4 0-2.6-1.2-2.6-2.6z"/>
						<path id="&lt;Path&gt;" class="s5" d="m1502.2 105.8c0-1.5 1.2-2.7 2.7-2.7 1.4 0 2.6 1.2 2.6 2.7 0 1.4-1.2 2.6-2.6 2.6-1.5 0-2.7-1.2-2.7-2.6z"/>
						<path id="&lt;Path&gt;" class="s5" d="m1526.2 105.8c0-1.5 1.2-2.7 2.7-2.7 1.5 0 2.7 1.2 2.7 2.7 0 1.4-1.2 2.6-2.7 2.6-1.5 0-2.7-1.2-2.7-2.6z"/>
						<path id="&lt;Path&gt;" class="s5" d="m1550.3 105.8c0-1.5 1.2-2.7 2.6-2.7 1.5 0 2.7 1.2 2.7 2.7 0 1.4-1.2 2.6-2.7 2.6-1.4 0-2.6-1.2-2.6-2.6z"/>
						<path id="&lt;Path&gt;" class="s5" d="m1574.3 105.8c0-1.5 1.2-2.7 2.7-2.7 1.4 0 2.6 1.2 2.6 2.7 0 1.4-1.2 2.6-2.6 2.6-1.5 0-2.7-1.2-2.7-2.6z"/>
						<path id="&lt;Path&gt;" class="s5" d="m1598.3 105.8c0-1.5 1.2-2.7 2.7-2.7 1.5 0 2.7 1.2 2.7 2.7 0 1.4-1.2 2.6-2.7 2.6-1.5 0-2.7-1.2-2.7-2.6z"/>
						<path id="&lt;Path&gt;" class="s5" d="m1358 127.1c0-1.5 1.2-2.7 2.7-2.7 1.4 0 2.6 1.2 2.6 2.7 0 1.5-1.2 2.7-2.6 2.7-1.5 0-2.7-1.2-2.7-2.7z"/>
						<path id="&lt;Path&gt;" class="s5" d="m1382 127.1c0-1.5 1.2-2.7 2.7-2.7 1.5 0 2.7 1.2 2.7 2.7 0 1.5-1.2 2.7-2.7 2.7-1.5 0-2.7-1.2-2.7-2.7z"/>
						<path id="&lt;Path&gt;" class="s5" d="m1406.1 127.1c0-1.5 1.2-2.7 2.6-2.7 1.5 0 2.7 1.2 2.7 2.7 0 1.5-1.2 2.7-2.7 2.7-1.4 0-2.6-1.2-2.6-2.7z"/>
						<path id="&lt;Path&gt;" class="s5" d="m1435.4 127.1c0 1.5-1.2 2.7-2.6 2.7-1.5 0-2.7-1.2-2.7-2.7 0-1.4 1.2-2.7 2.7-2.7 1.4 0 2.6 1.3 2.6 2.7z"/>
						<path id="&lt;Path&gt;" class="s5" d="m1459.5 127.1c0 1.5-1.2 2.7-2.7 2.7-1.5 0-2.7-1.2-2.7-2.7 0-1.4 1.2-2.7 2.7-2.7 1.5 0 2.7 1.3 2.7 2.7z"/>
						<path id="&lt;Path&gt;" class="s5" d="m1478.2 127.1c0-1.5 1.2-2.7 2.6-2.7 1.5 0 2.7 1.2 2.7 2.7 0 1.5-1.2 2.7-2.7 2.7-1.4 0-2.6-1.2-2.6-2.7z"/>
						<path id="&lt;Path&gt;" class="s5" d="m1502.2 127.1c0-1.5 1.2-2.7 2.7-2.7 1.4 0 2.6 1.2 2.6 2.7 0 1.5-1.2 2.7-2.6 2.7-1.5 0-2.7-1.2-2.7-2.7z"/>
						<path id="&lt;Path&gt;" class="s5" d="m1526.2 127.1c0-1.5 1.2-2.7 2.7-2.7 1.5 0 2.7 1.2 2.7 2.7 0 1.5-1.2 2.7-2.7 2.7-1.5 0-2.7-1.2-2.7-2.7z"/>
						<path id="&lt;Path&gt;" class="s5" d="m1550.3 127.1c0-1.5 1.2-2.7 2.6-2.7 1.5 0 2.7 1.2 2.7 2.7 0 1.5-1.2 2.7-2.7 2.7-1.4 0-2.6-1.2-2.6-2.7z"/>
						<path id="&lt;Path&gt;" class="s5" d="m1574.3 127.1c0-1.5 1.2-2.7 2.7-2.7 1.4 0 2.6 1.2 2.6 2.7 0 1.5-1.2 2.7-2.6 2.7-1.5 0-2.7-1.2-2.7-2.7z"/>
						<path id="&lt;Path&gt;" class="s5" d="m1598.3 127.1c0-1.5 1.2-2.7 2.7-2.7 1.5 0 2.7 1.2 2.7 2.7 0 1.5-1.2 2.7-2.7 2.7-1.5 0-2.7-1.2-2.7-2.7z"/>
						<path id="&lt;Path&gt;" class="s5" d="m1358 148.5c0-1.5 1.2-2.7 2.7-2.7 1.4 0 2.6 1.2 2.6 2.7 0 1.5-1.2 2.7-2.6 2.7-1.5 0-2.7-1.2-2.7-2.7z"/>
						<path id="&lt;Path&gt;" class="s5" d="m1382 148.5c0-1.5 1.2-2.7 2.7-2.7 1.5 0 2.7 1.2 2.7 2.7 0 1.5-1.2 2.7-2.7 2.7-1.5 0-2.7-1.2-2.7-2.7z"/>
						<path id="&lt;Path&gt;" class="s5" d="m1406.1 148.5c0-1.5 1.2-2.7 2.6-2.7 1.5 0 2.7 1.2 2.7 2.7 0 1.5-1.2 2.7-2.7 2.7-1.4 0-2.6-1.2-2.6-2.7z"/>
						<path id="&lt;Path&gt;" class="s5" d="m1435.4 148.5c0 1.5-1.2 2.7-2.6 2.7-1.5 0-2.7-1.2-2.7-2.7 0-1.5 1.2-2.7 2.7-2.7 1.4 0 2.6 1.2 2.6 2.7z"/>
						<path id="&lt;Path&gt;" class="s5" d="m1459.5 148.5c0 1.5-1.2 2.7-2.7 2.7-1.5 0-2.7-1.2-2.7-2.7 0-1.5 1.2-2.7 2.7-2.7 1.5 0 2.7 1.2 2.7 2.7z"/>
						<path id="&lt;Path&gt;" class="s5" d="m1478.2 148.5c0-1.5 1.2-2.7 2.6-2.7 1.5 0 2.7 1.2 2.7 2.7 0 1.5-1.2 2.7-2.7 2.7-1.4 0-2.6-1.2-2.6-2.7z"/>
						<path id="&lt;Path&gt;" class="s5" d="m1502.2 148.5c0-1.5 1.2-2.7 2.7-2.7 1.4 0 2.6 1.2 2.6 2.7 0 1.5-1.2 2.7-2.6 2.7-1.5 0-2.7-1.2-2.7-2.7z"/>
						<path id="&lt;Path&gt;" class="s5" d="m1526.2 148.5c0-1.5 1.2-2.7 2.7-2.7 1.5 0 2.7 1.2 2.7 2.7 0 1.5-1.2 2.7-2.7 2.7-1.5 0-2.7-1.2-2.7-2.7z"/>
						<path id="&lt;Path&gt;" class="s5" d="m1550.3 148.5c0-1.5 1.2-2.7 2.6-2.7 1.5 0 2.7 1.2 2.7 2.7 0 1.5-1.2 2.7-2.7 2.7-1.4 0-2.6-1.2-2.6-2.7z"/>
						<path id="&lt;Path&gt;" class="s5" d="m1574.3 148.5c0-1.5 1.2-2.7 2.7-2.7 1.4 0 2.6 1.2 2.6 2.7 0 1.5-1.2 2.7-2.6 2.7-1.5 0-2.7-1.2-2.7-2.7z"/>
						<path id="&lt;Path&gt;" class="s5" d="m1598.3 148.5c0-1.5 1.2-2.7 2.7-2.7 1.5 0 2.7 1.2 2.7 2.7 0 1.5-1.2 2.7-2.7 2.7-1.5 0-2.7-1.2-2.7-2.7z"/>
						<path id="&lt;Path&gt;" class="s5" d="m1363.3 169.8c0 1.5-1.2 2.7-2.6 2.7-1.5 0-2.7-1.2-2.7-2.7 0-1.4 1.2-2.6 2.7-2.6 1.4 0 2.6 1.2 2.6 2.6z"/>
						<path id="&lt;Path&gt;" class="s5" d="m1387.4 169.8c0 1.5-1.2 2.7-2.7 2.7-1.5 0-2.7-1.2-2.7-2.7 0-1.4 1.2-2.6 2.7-2.6 1.5 0 2.7 1.2 2.7 2.6z"/>
						<path id="&lt;Path&gt;" class="s5" d="m1411.4 169.8c0 1.5-1.2 2.7-2.7 2.7-1.4 0-2.6-1.2-2.6-2.7 0-1.4 1.2-2.6 2.6-2.6 1.5 0 2.7 1.2 2.7 2.6z"/>
						<path id="&lt;Path&gt;" class="s5" d="m1435.4 169.8c0 1.5-1.2 2.7-2.6 2.7-1.5 0-2.7-1.2-2.7-2.7 0-1.4 1.2-2.6 2.7-2.6 1.4 0 2.6 1.2 2.6 2.6z"/>
						<path id="&lt;Path&gt;" class="s5" d="m1459.5 169.8c0 1.5-1.2 2.7-2.7 2.7-1.5 0-2.7-1.2-2.7-2.7 0-1.4 1.2-2.6 2.7-2.6 1.5 0 2.7 1.2 2.7 2.6z"/>
						<path id="&lt;Path&gt;" class="s5" d="m1483.5 169.8c0 1.5-1.2 2.7-2.7 2.7-1.4 0-2.6-1.2-2.6-2.7 0-1.4 1.2-2.6 2.6-2.6 1.5 0 2.7 1.2 2.7 2.6z"/>
						<path id="&lt;Path&gt;" class="s5" d="m1507.5 169.8c0 1.5-1.2 2.7-2.6 2.7-1.5 0-2.7-1.2-2.7-2.7 0-1.4 1.2-2.6 2.7-2.6 1.4 0 2.6 1.2 2.6 2.6z"/>
						<path id="&lt;Path&gt;" class="s5" d="m1531.6 169.8c0 1.5-1.2 2.7-2.7 2.7-1.5 0-2.7-1.2-2.7-2.7 0-1.4 1.2-2.6 2.7-2.6 1.5 0 2.7 1.2 2.7 2.6z"/>
						<path id="&lt;Path&gt;" class="s5" d="m1555.6 169.8c0 1.5-1.2 2.7-2.7 2.7-1.4 0-2.6-1.2-2.6-2.7 0-1.4 1.2-2.6 2.6-2.6 1.5 0 2.7 1.2 2.7 2.6z"/>
						<path id="&lt;Path&gt;" class="s5" d="m1579.6 169.8c0 1.5-1.2 2.7-2.6 2.7-1.5 0-2.7-1.2-2.7-2.7 0-1.4 1.2-2.6 2.7-2.6 1.4 0 2.6 1.2 2.6 2.6z"/>
						<path id="&lt;Path&gt;" class="s5" d="m1603.7 169.8c0 1.5-1.2 2.7-2.7 2.7-1.5 0-2.7-1.2-2.7-2.7 0-1.4 1.2-2.6 2.7-2.6 1.5 0 2.7 1.2 2.7 2.6z"/>
						<path id="&lt;Path&gt;" class="s5" d="m1363.3 191.2c0 1.5-1.2 2.7-2.6 2.7-1.5 0-2.7-1.2-2.7-2.7 0-1.5 1.2-2.7 2.7-2.7 1.4 0 2.6 1.2 2.6 2.7z"/>
						<path id="&lt;Path&gt;" class="s5" d="m1387.4 191.2c0 1.5-1.2 2.7-2.7 2.7-1.5 0-2.7-1.2-2.7-2.7 0-1.5 1.2-2.7 2.7-2.7 1.5 0 2.7 1.2 2.7 2.7z"/>
						<path id="&lt;Path&gt;" class="s5" d="m1411.4 191.2c0 1.5-1.2 2.7-2.7 2.7-1.4 0-2.6-1.2-2.6-2.7 0-1.5 1.2-2.7 2.6-2.7 1.5 0 2.7 1.2 2.7 2.7z"/>
						<path id="&lt;Path&gt;" class="s5" d="m1435.4 191.2c0 1.5-1.2 2.7-2.6 2.7-1.5 0-2.7-1.2-2.7-2.7 0-1.5 1.2-2.7 2.7-2.7 1.4 0 2.6 1.2 2.6 2.7z"/>
						<path id="&lt;Path&gt;" class="s5" d="m1459.5 191.2c0 1.5-1.2 2.7-2.7 2.7-1.5 0-2.7-1.2-2.7-2.7 0-1.5 1.2-2.7 2.7-2.7 1.5 0 2.7 1.2 2.7 2.7z"/>
						<path id="&lt;Path&gt;" class="s5" d="m1483.5 191.2c0 1.5-1.2 2.7-2.7 2.7-1.4 0-2.6-1.2-2.6-2.7 0-1.5 1.2-2.7 2.6-2.7 1.5 0 2.7 1.2 2.7 2.7z"/>
						<path id="&lt;Path&gt;" class="s5" d="m1507.5 191.2c0 1.5-1.2 2.7-2.6 2.7-1.5 0-2.7-1.2-2.7-2.7 0-1.5 1.2-2.7 2.7-2.7 1.4 0 2.6 1.2 2.6 2.7z"/>
						<path id="&lt;Path&gt;" class="s5" d="m1531.6 191.2c0 1.5-1.2 2.7-2.7 2.7-1.5 0-2.7-1.2-2.7-2.7 0-1.5 1.2-2.7 2.7-2.7 1.5 0 2.7 1.2 2.7 2.7z"/>
						<path id="&lt;Path&gt;" class="s5" d="m1555.6 191.2c0 1.5-1.2 2.7-2.7 2.7-1.4 0-2.6-1.2-2.6-2.7 0-1.5 1.2-2.7 2.6-2.7 1.5 0 2.7 1.2 2.7 2.7z"/>
						<path id="&lt;Path&gt;" class="s5" d="m1579.6 191.2c0 1.5-1.2 2.7-2.6 2.7-1.5 0-2.7-1.2-2.7-2.7 0-1.5 1.2-2.7 2.7-2.7 1.4 0 2.6 1.2 2.6 2.7z"/>
						<path id="&lt;Path&gt;" class="s5" d="m1603.7 191.2c0 1.5-1.2 2.7-2.7 2.7-1.5 0-2.7-1.2-2.7-2.7 0-1.5 1.2-2.7 2.7-2.7 1.5 0 2.7 1.2 2.7 2.7z"/>
						<path id="&lt;Path&gt;" class="s5" d="m1363.3 212.6c0 1.4-1.2 2.6-2.6 2.6-1.5 0-2.7-1.2-2.7-2.6 0-1.5 1.2-2.7 2.7-2.7 1.4 0 2.6 1.2 2.6 2.7z"/>
						<path id="&lt;Path&gt;" class="s5" d="m1387.4 212.6c0 1.4-1.2 2.6-2.7 2.6-1.5 0-2.7-1.2-2.7-2.6 0-1.5 1.2-2.7 2.7-2.7 1.5 0 2.7 1.2 2.7 2.7z"/>
						<path id="&lt;Path&gt;" class="s5" d="m1411.4 212.6c0 1.4-1.2 2.6-2.7 2.6-1.4 0-2.6-1.2-2.6-2.6 0-1.5 1.2-2.7 2.6-2.7 1.5 0 2.7 1.2 2.7 2.7z"/>
						<path id="&lt;Path&gt;" class="s5" d="m1435.4 212.6c0 1.4-1.2 2.6-2.6 2.6-1.5 0-2.7-1.2-2.7-2.6 0-1.5 1.2-2.7 2.7-2.7 1.4 0 2.6 1.2 2.6 2.7z"/>
						<path id="&lt;Path&gt;" class="s5" d="m1459.5 212.6c0 1.4-1.2 2.6-2.7 2.6-1.5 0-2.7-1.2-2.7-2.6 0-1.5 1.2-2.7 2.7-2.7 1.5 0 2.7 1.2 2.7 2.7z"/>
						<path id="&lt;Path&gt;" class="s5" d="m1483.5 212.6c0 1.4-1.2 2.6-2.7 2.6-1.4 0-2.6-1.2-2.6-2.6 0-1.5 1.2-2.7 2.6-2.7 1.5 0 2.7 1.2 2.7 2.7z"/>
						<path id="&lt;Path&gt;" class="s5" d="m1507.5 212.6c0 1.4-1.2 2.6-2.6 2.6-1.5 0-2.7-1.2-2.7-2.6 0-1.5 1.2-2.7 2.7-2.7 1.4 0 2.6 1.2 2.6 2.7z"/>
						<path id="&lt;Path&gt;" class="s5" d="m1531.6 212.6c0 1.4-1.2 2.6-2.7 2.6-1.5 0-2.7-1.2-2.7-2.6 0-1.5 1.2-2.7 2.7-2.7 1.5 0 2.7 1.2 2.7 2.7z"/>
						<path id="&lt;Path&gt;" class="s5" d="m1555.6 212.6c0 1.4-1.2 2.6-2.7 2.6-1.4 0-2.6-1.2-2.6-2.6 0-1.5 1.2-2.7 2.6-2.7 1.5 0 2.7 1.2 2.7 2.7z"/>
						<path id="&lt;Path&gt;" class="s5" d="m1579.6 212.6c0 1.4-1.2 2.6-2.6 2.6-1.5 0-2.7-1.2-2.7-2.6 0-1.5 1.2-2.7 2.7-2.7 1.4 0 2.6 1.2 2.6 2.7z"/>
						<path id="&lt;Path&gt;" class="s5" d="m1603.7 212.6c0 1.4-1.2 2.6-2.7 2.6-1.5 0-2.7-1.2-2.7-2.6 0-1.5 1.2-2.7 2.7-2.7 1.5 0 2.7 1.2 2.7 2.7z"/>
						<path id="&lt;Path&gt;" class="s5" d="m1358 233.9c0-1.4 1.2-2.6 2.7-2.6 1.4 0 2.6 1.2 2.6 2.6 0 1.5-1.2 2.7-2.6 2.7-1.5 0-2.7-1.2-2.7-2.7z"/>
						<path id="&lt;Path&gt;" class="s5" d="m1382 233.9c0-1.4 1.2-2.6 2.7-2.6 1.5 0 2.7 1.2 2.7 2.6 0 1.5-1.2 2.7-2.7 2.7-1.5 0-2.7-1.2-2.7-2.7z"/>
						<path id="&lt;Path&gt;" class="s5" d="m1406.1 233.9c0-1.4 1.2-2.6 2.6-2.6 1.5 0 2.7 1.2 2.7 2.6 0 1.5-1.2 2.7-2.7 2.7-1.4 0-2.6-1.2-2.6-2.7z"/>
						<path id="&lt;Path&gt;" class="s5" d="m1435.4 233.9c0 1.5-1.2 2.7-2.6 2.7-1.5 0-2.7-1.2-2.7-2.7 0-1.4 1.2-2.6 2.7-2.6 1.4 0 2.6 1.2 2.6 2.6z"/>
						<path id="&lt;Path&gt;" class="s5" d="m1459.5 233.9c0 1.5-1.2 2.7-2.7 2.7-1.5 0-2.7-1.2-2.7-2.7 0-1.4 1.2-2.6 2.7-2.6 1.5 0 2.7 1.2 2.7 2.6z"/>
						<path id="&lt;Path&gt;" class="s5" d="m1478.2 233.9c0-1.4 1.2-2.6 2.6-2.6 1.5 0 2.7 1.2 2.7 2.6 0 1.5-1.2 2.7-2.7 2.7-1.4 0-2.6-1.2-2.6-2.7z"/>
						<path id="&lt;Path&gt;" class="s5" d="m1502.2 233.9c0-1.4 1.2-2.6 2.7-2.6 1.4 0 2.6 1.2 2.6 2.6 0 1.5-1.2 2.7-2.6 2.7-1.5 0-2.7-1.2-2.7-2.7z"/>
						<path id="&lt;Path&gt;" class="s5" d="m1526.2 233.9c0-1.4 1.2-2.6 2.7-2.6 1.5 0 2.7 1.2 2.7 2.6 0 1.5-1.2 2.7-2.7 2.7-1.5 0-2.7-1.2-2.7-2.7z"/>
						<path id="&lt;Path&gt;" class="s5" d="m1550.3 233.9c0-1.4 1.2-2.6 2.6-2.6 1.5 0 2.7 1.2 2.7 2.6 0 1.5-1.2 2.7-2.7 2.7-1.4 0-2.6-1.2-2.6-2.7z"/>
						<path id="&lt;Path&gt;" class="s5" d="m1574.3 233.9c0-1.4 1.2-2.6 2.7-2.6 1.4 0 2.6 1.2 2.6 2.6 0 1.5-1.2 2.7-2.6 2.7-1.5 0-2.7-1.2-2.7-2.7z"/>
						<path id="&lt;Path&gt;" class="s5" d="m1598.3 233.9c0-1.4 1.2-2.6 2.7-2.6 1.5 0 2.7 1.2 2.7 2.6 0 1.5-1.2 2.7-2.7 2.7-1.5 0-2.7-1.2-2.7-2.7z"/>
						<path id="&lt;Path&gt;" class="s5" d="m1363.3 255.3c0 1.5-1.2 2.7-2.6 2.7-1.5 0-2.7-1.2-2.7-2.7 0-1.5 1.2-2.7 2.7-2.7 1.4 0 2.6 1.2 2.6 2.7z"/>
						<path id="&lt;Path&gt;" class="s5" d="m1387.4 255.3c0 1.5-1.2 2.7-2.7 2.7-1.5 0-2.7-1.2-2.7-2.7 0-1.5 1.2-2.7 2.7-2.7 1.5 0 2.7 1.2 2.7 2.7z"/>
						<path id="&lt;Path&gt;" class="s5" d="m1411.4 255.3c0 1.5-1.2 2.7-2.7 2.7-1.4 0-2.6-1.2-2.6-2.7 0-1.5 1.2-2.7 2.6-2.7 1.5 0 2.7 1.2 2.7 2.7z"/>
						<path id="&lt;Path&gt;" class="s5" d="m1435.4 255.3c0 1.5-1.2 2.7-2.6 2.7-1.5 0-2.7-1.2-2.7-2.7 0-1.5 1.2-2.7 2.7-2.7 1.4 0 2.6 1.2 2.6 2.7z"/>
						<path id="&lt;Path&gt;" class="s5" d="m1459.5 255.3c0 1.5-1.2 2.7-2.7 2.7-1.5 0-2.7-1.2-2.7-2.7 0-1.5 1.2-2.7 2.7-2.7 1.5 0 2.7 1.2 2.7 2.7z"/>
						<path id="&lt;Path&gt;" class="s5" d="m1483.5 255.3c0 1.5-1.2 2.7-2.7 2.7-1.4 0-2.6-1.2-2.6-2.7 0-1.5 1.2-2.7 2.6-2.7 1.5 0 2.7 1.2 2.7 2.7z"/>
						<path id="&lt;Path&gt;" class="s5" d="m1507.5 255.3c0 1.5-1.2 2.7-2.6 2.7-1.5 0-2.7-1.2-2.7-2.7 0-1.5 1.2-2.7 2.7-2.7 1.4 0 2.6 1.2 2.6 2.7z"/>
						<path id="&lt;Path&gt;" class="s5" d="m1531.6 255.3c0 1.5-1.2 2.7-2.7 2.7-1.5 0-2.7-1.2-2.7-2.7 0-1.5 1.2-2.7 2.7-2.7 1.5 0 2.7 1.2 2.7 2.7z"/>
						<path id="&lt;Path&gt;" class="s5" d="m1555.6 255.3c0 1.5-1.2 2.7-2.7 2.7-1.4 0-2.6-1.2-2.6-2.7 0-1.5 1.2-2.7 2.6-2.7 1.5 0 2.7 1.2 2.7 2.7z"/>
						<path id="&lt;Path&gt;" class="s5" d="m1579.6 255.3c0 1.5-1.2 2.7-2.6 2.7-1.5 0-2.7-1.2-2.7-2.7 0-1.5 1.2-2.7 2.7-2.7 1.4 0 2.6 1.2 2.6 2.7z"/>
						<path id="&lt;Path&gt;" class="s5" d="m1603.7 255.3c0 1.5-1.2 2.7-2.7 2.7-1.5 0-2.7-1.2-2.7-2.7 0-1.5 1.2-2.7 2.7-2.7 1.5 0 2.7 1.2 2.7 2.7z"/>
						<path id="&lt;Path&gt;" class="s5" d="m1363.3 276.7c0 1.4-1.2 2.6-2.6 2.6-1.5 0-2.7-1.2-2.7-2.6 0-1.5 1.2-2.7 2.7-2.7 1.4 0 2.6 1.2 2.6 2.7z"/>
						<path id="&lt;Path&gt;" class="s5" d="m1387.4 276.7c0 1.4-1.2 2.6-2.7 2.6-1.5 0-2.7-1.2-2.7-2.6 0-1.5 1.2-2.7 2.7-2.7 1.5 0 2.7 1.2 2.7 2.7z"/>
						<path id="&lt;Path&gt;" class="s5" d="m1411.4 276.7c0 1.4-1.2 2.6-2.7 2.6-1.4 0-2.6-1.2-2.6-2.6 0-1.5 1.2-2.7 2.6-2.7 1.5 0 2.7 1.2 2.7 2.7z"/>
						<path id="&lt;Path&gt;" class="s5" d="m1435.4 276.7c0 1.4-1.2 2.6-2.6 2.6-1.5 0-2.7-1.2-2.7-2.6 0-1.5 1.2-2.7 2.7-2.7 1.4 0 2.6 1.2 2.6 2.7z"/>
						<path id="&lt;Path&gt;" class="s5" d="m1459.5 276.7c0 1.4-1.2 2.6-2.7 2.6-1.5 0-2.7-1.2-2.7-2.6 0-1.5 1.2-2.7 2.7-2.7 1.5 0 2.7 1.2 2.7 2.7z"/>
						<path id="&lt;Path&gt;" class="s5" d="m1483.5 276.7c0 1.4-1.2 2.6-2.7 2.6-1.4 0-2.6-1.2-2.6-2.6 0-1.5 1.2-2.7 2.6-2.7 1.5 0 2.7 1.2 2.7 2.7z"/>
						<path id="&lt;Path&gt;" class="s5" d="m1507.5 276.7c0 1.4-1.2 2.6-2.6 2.6-1.5 0-2.7-1.2-2.7-2.6 0-1.5 1.2-2.7 2.7-2.7 1.4 0 2.6 1.2 2.6 2.7z"/>
						<path id="&lt;Path&gt;" class="s5" d="m1531.6 276.7c0 1.4-1.2 2.6-2.7 2.6-1.5 0-2.7-1.2-2.7-2.6 0-1.5 1.2-2.7 2.7-2.7 1.5 0 2.7 1.2 2.7 2.7z"/>
						<path id="&lt;Path&gt;" class="s5" d="m1555.6 276.7c0 1.4-1.2 2.6-2.7 2.6-1.4 0-2.6-1.2-2.6-2.6 0-1.5 1.2-2.7 2.6-2.7 1.5 0 2.7 1.2 2.7 2.7z"/>
						<path id="&lt;Path&gt;" class="s5" d="m1579.6 276.7c0 1.4-1.2 2.6-2.6 2.6-1.5 0-2.7-1.2-2.7-2.6 0-1.5 1.2-2.7 2.7-2.7 1.4 0 2.6 1.2 2.6 2.7z"/>
						<path id="&lt;Path&gt;" class="s5" d="m1603.7 276.7c0 1.4-1.2 2.6-2.7 2.6-1.5 0-2.7-1.2-2.7-2.6 0-1.5 1.2-2.7 2.7-2.7 1.5 0 2.7 1.2 2.7 2.7z"/>
						<path id="&lt;Path&gt;" class="s5" d="m1363.3 298c0 1.5-1.2 2.7-2.6 2.7-1.5 0-2.7-1.2-2.7-2.7 0-1.4 1.2-2.6 2.7-2.6 1.4 0 2.6 1.2 2.6 2.6z"/>
						<path id="&lt;Path&gt;" class="s5" d="m1387.4 298c0 1.5-1.2 2.7-2.7 2.7-1.5 0-2.7-1.2-2.7-2.7 0-1.4 1.2-2.6 2.7-2.6 1.5 0 2.7 1.2 2.7 2.6z"/>
						<path id="&lt;Path&gt;" class="s5" d="m1411.4 298c0 1.5-1.2 2.7-2.7 2.7-1.4 0-2.6-1.2-2.6-2.7 0-1.4 1.2-2.6 2.6-2.6 1.5 0 2.7 1.2 2.7 2.6z"/>
						<path id="&lt;Path&gt;" class="s5" d="m1435.4 298c0 1.5-1.2 2.7-2.6 2.7-1.5 0-2.7-1.2-2.7-2.7 0-1.4 1.2-2.6 2.7-2.6 1.4 0 2.6 1.2 2.6 2.6z"/>
						<path id="&lt;Path&gt;" class="s5" d="m1459.5 298c0 1.5-1.2 2.7-2.7 2.7-1.5 0-2.7-1.2-2.7-2.7 0-1.4 1.2-2.6 2.7-2.6 1.5 0 2.7 1.2 2.7 2.6z"/>
						<path id="&lt;Path&gt;" class="s5" d="m1483.5 298c0 1.5-1.2 2.7-2.7 2.7-1.4 0-2.6-1.2-2.6-2.7 0-1.4 1.2-2.6 2.6-2.6 1.5 0 2.7 1.2 2.7 2.6z"/>
						<path id="&lt;Path&gt;" class="s5" d="m1507.5 298c0 1.5-1.2 2.7-2.6 2.7-1.5 0-2.7-1.2-2.7-2.7 0-1.4 1.2-2.6 2.7-2.6 1.4 0 2.6 1.2 2.6 2.6z"/>
						<path id="&lt;Path&gt;" class="s5" d="m1531.6 298c0 1.5-1.2 2.7-2.7 2.7-1.5 0-2.7-1.2-2.7-2.7 0-1.4 1.2-2.6 2.7-2.6 1.5 0 2.7 1.2 2.7 2.6z"/>
						<path id="&lt;Path&gt;" class="s5" d="m1555.6 298c0 1.5-1.2 2.7-2.7 2.7-1.4 0-2.6-1.2-2.6-2.7 0-1.4 1.2-2.6 2.6-2.6 1.5 0 2.7 1.2 2.7 2.6z"/>
						<path id="&lt;Path&gt;" class="s5" d="m1579.6 298c0 1.5-1.2 2.7-2.6 2.7-1.5 0-2.7-1.2-2.7-2.7 0-1.4 1.2-2.6 2.7-2.6 1.4 0 2.6 1.2 2.6 2.6z"/>
						<path id="&lt;Path&gt;" class="s5" d="m1603.7 298c0 1.5-1.2 2.7-2.7 2.7-1.5 0-2.7-1.2-2.7-2.7 0-1.4 1.2-2.6 2.7-2.6 1.5 0 2.7 1.2 2.7 2.6z"/>
						<path id="&lt;Path&gt;" class="s5" d="m1358 319.4c0-1.5 1.2-2.7 2.7-2.7 1.4 0 2.6 1.2 2.6 2.7 0 1.5-1.2 2.7-2.6 2.7-1.5 0-2.7-1.2-2.7-2.7z"/>
						<path id="&lt;Path&gt;" class="s5" d="m1382 319.4c0-1.5 1.2-2.7 2.7-2.7 1.5 0 2.7 1.2 2.7 2.7 0 1.5-1.2 2.7-2.7 2.7-1.5 0-2.7-1.2-2.7-2.7z"/>
						<path id="&lt;Path&gt;" class="s5" d="m1406.1 319.4c0-1.5 1.2-2.7 2.6-2.7 1.5 0 2.7 1.2 2.7 2.7 0 1.5-1.2 2.7-2.7 2.7-1.4 0-2.6-1.2-2.6-2.7z"/>
						<path id="&lt;Path&gt;" class="s5" d="m1435.4 319.4c0 1.5-1.2 2.7-2.6 2.7-1.5 0-2.7-1.2-2.7-2.7 0-1.5 1.2-2.7 2.7-2.7 1.4 0 2.6 1.2 2.6 2.7z"/>
						<path id="&lt;Path&gt;" class="s5" d="m1459.5 319.4c0 1.5-1.2 2.7-2.7 2.7-1.5 0-2.7-1.2-2.7-2.7 0-1.5 1.2-2.7 2.7-2.7 1.5 0 2.7 1.2 2.7 2.7z"/>
						<path id="&lt;Path&gt;" class="s5" d="m1478.2 319.4c0-1.5 1.2-2.7 2.6-2.7 1.5 0 2.7 1.2 2.7 2.7 0 1.5-1.2 2.7-2.7 2.7-1.4 0-2.6-1.2-2.6-2.7z"/>
						<path id="&lt;Path&gt;" class="s5" d="m1502.2 319.4c0-1.5 1.2-2.7 2.7-2.7 1.4 0 2.6 1.2 2.6 2.7 0 1.5-1.2 2.7-2.6 2.7-1.5 0-2.7-1.2-2.7-2.7z"/>
						<path id="&lt;Path&gt;" class="s5" d="m1526.2 319.4c0-1.5 1.2-2.7 2.7-2.7 1.5 0 2.7 1.2 2.7 2.7 0 1.5-1.2 2.7-2.7 2.7-1.5 0-2.7-1.2-2.7-2.7z"/>
						<path id="&lt;Path&gt;" class="s5" d="m1550.3 319.4c0-1.5 1.2-2.7 2.6-2.7 1.5 0 2.7 1.2 2.7 2.7 0 1.5-1.2 2.7-2.7 2.7-1.4 0-2.6-1.2-2.6-2.7z"/>
						<path id="&lt;Path&gt;" class="s5" d="m1574.3 319.4c0-1.5 1.2-2.7 2.7-2.7 1.4 0 2.6 1.2 2.6 2.7 0 1.5-1.2 2.7-2.6 2.7-1.5 0-2.7-1.2-2.7-2.7z"/>
						<path id="&lt;Path&gt;" class="s5" d="m1598.3 319.4c0-1.5 1.2-2.7 2.7-2.7 1.5 0 2.7 1.2 2.7 2.7 0 1.5-1.2 2.7-2.7 2.7-1.5 0-2.7-1.2-2.7-2.7z"/>
						<path id="&lt;Path&gt;" class="s5" d="m1363.3 340.7c0 1.5-1.2 2.7-2.6 2.7-1.5 0-2.7-1.2-2.7-2.7 0-1.4 1.2-2.6 2.7-2.6 1.4 0 2.6 1.2 2.6 2.6z"/>
						<path id="&lt;Path&gt;" class="s5" d="m1387.4 340.7c0 1.5-1.2 2.7-2.7 2.7-1.5 0-2.7-1.2-2.7-2.7 0-1.4 1.2-2.6 2.7-2.6 1.5 0 2.7 1.2 2.7 2.6z"/>
						<path id="&lt;Path&gt;" class="s5" d="m1411.4 340.7c0 1.5-1.2 2.7-2.7 2.7-1.4 0-2.6-1.2-2.6-2.7 0-1.4 1.2-2.6 2.6-2.6 1.5 0 2.7 1.2 2.7 2.6z"/>
						<path id="&lt;Path&gt;" class="s5" d="m1435.4 340.7c0 1.5-1.2 2.7-2.6 2.7-1.5 0-2.7-1.2-2.7-2.7 0-1.4 1.2-2.6 2.7-2.6 1.4 0 2.6 1.2 2.6 2.6z"/>
						<path id="&lt;Path&gt;" class="s5" d="m1459.5 340.7c0 1.5-1.2 2.7-2.7 2.7-1.5 0-2.7-1.2-2.7-2.7 0-1.4 1.2-2.6 2.7-2.6 1.5 0 2.7 1.2 2.7 2.6z"/>
						<path id="&lt;Path&gt;" class="s5" d="m1483.5 340.7c0 1.5-1.2 2.7-2.7 2.7-1.4 0-2.6-1.2-2.6-2.7 0-1.4 1.2-2.6 2.6-2.6 1.5 0 2.7 1.2 2.7 2.6z"/>
						<path id="&lt;Path&gt;" class="s5" d="m1507.5 340.7c0 1.5-1.2 2.7-2.6 2.7-1.5 0-2.7-1.2-2.7-2.7 0-1.4 1.2-2.6 2.7-2.6 1.4 0 2.6 1.2 2.6 2.6z"/>
						<path id="&lt;Path&gt;" class="s5" d="m1531.6 340.7c0 1.5-1.2 2.7-2.7 2.7-1.5 0-2.7-1.2-2.7-2.7 0-1.4 1.2-2.6 2.7-2.6 1.5 0 2.7 1.2 2.7 2.6z"/>
						<path id="&lt;Path&gt;" class="s5" d="m1555.6 340.7c0 1.5-1.2 2.7-2.7 2.7-1.4 0-2.6-1.2-2.6-2.7 0-1.4 1.2-2.6 2.6-2.6 1.5 0 2.7 1.2 2.7 2.6z"/>
						<path id="&lt;Path&gt;" class="s5" d="m1579.6 340.7c0 1.5-1.2 2.7-2.6 2.7-1.5 0-2.7-1.2-2.7-2.7 0-1.4 1.2-2.6 2.7-2.6 1.4 0 2.6 1.2 2.6 2.6z"/>
						<path id="&lt;Path&gt;" class="s5" d="m1603.7 340.7c0 1.5-1.2 2.7-2.7 2.7-1.5 0-2.7-1.2-2.7-2.7 0-1.4 1.2-2.6 2.7-2.6 1.5 0 2.7 1.2 2.7 2.6z"/>
					</g>
					<g id="&lt;Group&gt;" style="opacity: .7">
						<path id="&lt;Path&gt;" class="s5" d="m0.2 757.4c0-2.2 1.7-3.9 3.9-3.9 2.2 0 3.9 1.7 3.9 3.9 0 2.2-1.7 3.9-3.9 3.9-2.2 0-3.9-1.7-3.9-3.9z"/>
						<path id="&lt;Path&gt;" class="s5" d="m35.5 757.4c0-2.2 1.8-3.9 4-3.9 2.1 0 3.9 1.7 3.9 3.9 0 2.2-1.8 3.9-3.9 3.9-2.2 0-4-1.7-4-3.9z"/>
						<path id="&lt;Path&gt;" class="s5" d="m70.9 757.4c0-2.2 1.7-3.9 3.9-3.9 2.2 0 3.9 1.7 3.9 3.9 0 2.2-1.7 3.9-3.9 3.9-2.2 0-3.9-1.7-3.9-3.9z"/>
						<path id="&lt;Path&gt;" class="s5" d="m114.1 757.4c0 2.2-1.8 3.9-3.9 3.9-2.2 0-4-1.7-4-3.9 0-2.2 1.8-3.9 4-3.9 2.1 0 3.9 1.7 3.9 3.9z"/>
						<path id="&lt;Path&gt;" class="s5" d="m149.5 757.4c0 2.2-1.8 3.9-4 3.9-2.1 0-3.9-1.7-3.9-3.9 0-2.2 1.8-3.9 3.9-3.9 2.2 0 4 1.7 4 3.9z"/>
						<path id="&lt;Path&gt;" class="s5" d="m177 757.4c0-2.2 1.7-3.9 3.9-3.9 2.2 0 3.9 1.7 3.9 3.9 0 2.2-1.7 3.9-3.9 3.9-2.2 0-3.9-1.7-3.9-3.9z"/>
						<path id="&lt;Path&gt;" class="s5" d="m212.3 757.4c0-2.2 1.8-3.9 4-3.9 2.1 0 3.9 1.7 3.9 3.9 0 2.2-1.8 3.9-3.9 3.9-2.2 0-4-1.7-4-3.9z"/>
						<path id="&lt;Path&gt;" class="s5" d="m247.7 757.4c0-2.2 1.7-3.9 3.9-3.9 2.2 0 3.9 1.7 3.9 3.9 0 2.2-1.7 3.9-3.9 3.9-2.2 0-3.9-1.7-3.9-3.9z"/>
						<path id="&lt;Path&gt;" class="s5" d="m283 757.4c0-2.2 1.8-3.9 4-3.9 2.1 0 3.9 1.7 3.9 3.9 0 2.2-1.8 3.9-3.9 3.9-2.2 0-4-1.7-4-3.9z"/>
						<path id="&lt;Path&gt;" class="s5" d="m318.4 757.4c0-2.2 1.8-3.9 3.9-3.9 2.2 0 4 1.7 4 3.9 0 2.2-1.8 3.9-4 3.9-2.1 0-3.9-1.7-3.9-3.9z"/>
						<path id="&lt;Path&gt;" class="s5" d="m353.8 757.4c0-2.2 1.7-3.9 3.9-3.9 2.2 0 3.9 1.7 3.9 3.9 0 2.2-1.7 3.9-3.9 3.9-2.2 0-3.9-1.7-3.9-3.9z"/>
						<path id="&lt;Path&gt;" class="s5" d="m0.2 788.8c0-2.1 1.7-3.9 3.9-3.9 2.2 0 3.9 1.8 3.9 3.9 0 2.2-1.7 4-3.9 4-2.2 0-3.9-1.8-3.9-4z"/>
						<path id="&lt;Path&gt;" class="s5" d="m35.5 788.8c0-2.1 1.8-3.9 4-3.9 2.1 0 3.9 1.8 3.9 3.9 0 2.2-1.8 4-3.9 4-2.2 0-4-1.8-4-4z"/>
						<path id="&lt;Path&gt;" class="s5" d="m70.9 788.8c0-2.1 1.7-3.9 3.9-3.9 2.2 0 3.9 1.8 3.9 3.9 0 2.2-1.7 4-3.9 4-2.2 0-3.9-1.8-3.9-4z"/>
						<path id="&lt;Path&gt;" class="s5" d="m114.1 788.8c0 2.2-1.8 4-3.9 4-2.2 0-4-1.8-4-4 0-2.1 1.8-3.9 4-3.9 2.1 0 3.9 1.8 3.9 3.9z"/>
						<path id="&lt;Path&gt;" class="s5" d="m149.5 788.8c0 2.2-1.8 4-4 4-2.1 0-3.9-1.8-3.9-4 0-2.1 1.8-3.9 3.9-3.9 2.2 0 4 1.8 4 3.9z"/>
						<path id="&lt;Path&gt;" class="s5" d="m177 788.8c0-2.1 1.7-3.9 3.9-3.9 2.2 0 3.9 1.8 3.9 3.9 0 2.2-1.7 4-3.9 4-2.2 0-3.9-1.8-3.9-4z"/>
						<path id="&lt;Path&gt;" class="s5" d="m212.3 788.8c0-2.1 1.8-3.9 4-3.9 2.1 0 3.9 1.8 3.9 3.9 0 2.2-1.8 4-3.9 4-2.2 0-4-1.8-4-4z"/>
						<path id="&lt;Path&gt;" class="s5" d="m247.7 788.8c0-2.1 1.7-3.9 3.9-3.9 2.2 0 3.9 1.8 3.9 3.9 0 2.2-1.7 4-3.9 4-2.2 0-3.9-1.8-3.9-4z"/>
						<path id="&lt;Path&gt;" class="s5" d="m283 788.8c0-2.1 1.8-3.9 4-3.9 2.1 0 3.9 1.8 3.9 3.9 0 2.2-1.8 4-3.9 4-2.2 0-4-1.8-4-4z"/>
						<path id="&lt;Path&gt;" class="s5" d="m318.4 788.8c0-2.1 1.8-3.9 3.9-3.9 2.2 0 4 1.8 4 3.9 0 2.2-1.8 4-4 4-2.1 0-3.9-1.8-3.9-4z"/>
						<path id="&lt;Path&gt;" class="s5" d="m353.8 788.8c0-2.1 1.7-3.9 3.9-3.9 2.2 0 3.9 1.8 3.9 3.9 0 2.2-1.7 4-3.9 4-2.2 0-3.9-1.8-3.9-4z"/>
						<path id="&lt;Path&gt;" class="s5" d="m0.2 820.3c0-2.2 1.7-4 3.9-4 2.2 0 3.9 1.8 3.9 4 0 2.1-1.7 3.9-3.9 3.9-2.2 0-3.9-1.8-3.9-3.9z"/>
						<path id="&lt;Path&gt;" class="s5" d="m35.5 820.3c0-2.2 1.8-4 4-4 2.1 0 3.9 1.8 3.9 4 0 2.1-1.8 3.9-3.9 3.9-2.2 0-4-1.8-4-3.9z"/>
						<path id="&lt;Path&gt;" class="s5" d="m70.9 820.3c0-2.2 1.7-4 3.9-4 2.2 0 3.9 1.8 3.9 4 0 2.1-1.7 3.9-3.9 3.9-2.2 0-3.9-1.8-3.9-3.9z"/>
						<path id="&lt;Path&gt;" class="s5" d="m114.1 820.3c0 2.1-1.8 3.9-3.9 3.9-2.2 0-4-1.8-4-3.9 0-2.2 1.8-4 4-4 2.1 0 3.9 1.8 3.9 4z"/>
						<path id="&lt;Path&gt;" class="s5" d="m149.5 820.3c0 2.1-1.8 3.9-4 3.9-2.1 0-3.9-1.8-3.9-3.9 0-2.2 1.8-4 3.9-4 2.2 0 4 1.8 4 4z"/>
						<path id="&lt;Path&gt;" class="s5" d="m177 820.3c0-2.2 1.7-4 3.9-4 2.2 0 3.9 1.8 3.9 4 0 2.1-1.7 3.9-3.9 3.9-2.2 0-3.9-1.8-3.9-3.9z"/>
						<path id="&lt;Path&gt;" class="s5" d="m212.3 820.3c0-2.2 1.8-4 4-4 2.1 0 3.9 1.8 3.9 4 0 2.1-1.8 3.9-3.9 3.9-2.2 0-4-1.8-4-3.9z"/>
						<path id="&lt;Path&gt;" class="s5" d="m247.7 820.3c0-2.2 1.7-4 3.9-4 2.2 0 3.9 1.8 3.9 4 0 2.1-1.7 3.9-3.9 3.9-2.2 0-3.9-1.8-3.9-3.9z"/>
						<path id="&lt;Path&gt;" class="s5" d="m283 820.3c0-2.2 1.8-4 4-4 2.1 0 3.9 1.8 3.9 4 0 2.1-1.8 3.9-3.9 3.9-2.2 0-4-1.8-4-3.9z"/>
						<path id="&lt;Path&gt;" class="s5" d="m318.4 820.3c0-2.2 1.8-4 3.9-4 2.2 0 4 1.8 4 4 0 2.1-1.8 3.9-4 3.9-2.1 0-3.9-1.8-3.9-3.9z"/>
						<path id="&lt;Path&gt;" class="s5" d="m353.8 820.3c0-2.2 1.7-4 3.9-4 2.2 0 3.9 1.8 3.9 4 0 2.1-1.7 3.9-3.9 3.9-2.2 0-3.9-1.8-3.9-3.9z"/>
						<path id="&lt;Path&gt;" class="s5" d="m8 851.7c0 2.2-1.7 3.9-3.9 3.9-2.2 0-3.9-1.7-3.9-3.9 0-2.2 1.7-3.9 3.9-3.9 2.2 0 3.9 1.7 3.9 3.9z"/>
						<path id="&lt;Path&gt;" class="s5" d="m43.4 851.7c0 2.2-1.8 3.9-3.9 3.9-2.2 0-4-1.7-4-3.9 0-2.2 1.8-3.9 4-3.9 2.1 0 3.9 1.7 3.9 3.9z"/>
						<path id="&lt;Path&gt;" class="s5" d="m78.7 851.7c0 2.2-1.7 3.9-3.9 3.9-2.1 0-3.9-1.7-3.9-3.9 0-2.2 1.8-3.9 3.9-3.9 2.2 0 3.9 1.7 3.9 3.9z"/>
						<path id="&lt;Path&gt;" class="s5" d="m114.1 851.7c0 2.2-1.8 3.9-3.9 3.9-2.2 0-4-1.7-4-3.9 0-2.2 1.8-3.9 4-3.9 2.1 0 3.9 1.7 3.9 3.9z"/>
						<path id="&lt;Path&gt;" class="s5" d="m149.5 851.7c0 2.2-1.8 3.9-4 3.9-2.1 0-3.9-1.7-3.9-3.9 0-2.2 1.8-3.9 3.9-3.9 2.2 0 4 1.7 4 3.9z"/>
						<path id="&lt;Path&gt;" class="s5" d="m184.8 851.7c0 2.2-1.7 3.9-3.9 3.9-2.2 0-3.9-1.7-3.9-3.9 0-2.2 1.7-3.9 3.9-3.9 2.2 0 3.9 1.7 3.9 3.9z"/>
						<path id="&lt;Path&gt;" class="s5" d="m220.2 851.7c0 2.2-1.8 3.9-3.9 3.9-2.2 0-4-1.7-4-3.9 0-2.2 1.8-3.9 4-3.9 2.1 0 3.9 1.7 3.9 3.9z"/>
						<path id="&lt;Path&gt;" class="s5" d="m255.5 851.7c0 2.2-1.7 3.9-3.9 3.9-2.1 0-3.9-1.7-3.9-3.9 0-2.2 1.8-3.9 3.9-3.9 2.2 0 3.9 1.7 3.9 3.9z"/>
						<path id="&lt;Path&gt;" class="s5" d="m290.9 851.7c0 2.2-1.8 3.9-3.9 3.9-2.2 0-4-1.7-4-3.9 0-2.2 1.8-3.9 4-3.9 2.1 0 3.9 1.7 3.9 3.9z"/>
						<path id="&lt;Path&gt;" class="s5" d="m326.3 851.7c0 2.2-1.8 3.9-4 3.9-2.1 0-3.9-1.7-3.9-3.9 0-2.2 1.8-3.9 3.9-3.9 2.2 0 4 1.7 4 3.9z"/>
						<path id="&lt;Path&gt;" class="s5" d="m361.6 851.7c0 2.2-1.7 3.9-3.9 3.9-2.2 0-3.9-1.7-3.9-3.9 0-2.2 1.7-3.9 3.9-3.9 2.2 0 3.9 1.7 3.9 3.9z"/>
						<path id="&lt;Path&gt;" class="s5" d="m8 883.1c0 2.2-1.7 4-3.9 4-2.2 0-3.9-1.8-3.9-4 0-2.1 1.7-3.9 3.9-3.9 2.2 0 3.9 1.8 3.9 3.9z"/>
						<path id="&lt;Path&gt;" class="s5" d="m43.4 883.1c0 2.2-1.8 4-3.9 4-2.2 0-4-1.8-4-4 0-2.1 1.8-3.9 4-3.9 2.1 0 3.9 1.8 3.9 3.9z"/>
						<path id="&lt;Path&gt;" class="s5" d="m78.7 883.1c0 2.2-1.7 4-3.9 4-2.1 0-3.9-1.8-3.9-4 0-2.1 1.8-3.9 3.9-3.9 2.2 0 3.9 1.8 3.9 3.9z"/>
						<path id="&lt;Path&gt;" class="s5" d="m114.1 883.1c0 2.2-1.8 4-3.9 4-2.2 0-4-1.8-4-4 0-2.1 1.8-3.9 4-3.9 2.1 0 3.9 1.8 3.9 3.9z"/>
						<path id="&lt;Path&gt;" class="s5" d="m149.5 883.1c0 2.2-1.8 4-4 4-2.1 0-3.9-1.8-3.9-4 0-2.1 1.8-3.9 3.9-3.9 2.2 0 4 1.8 4 3.9z"/>
						<path id="&lt;Path&gt;" class="s5" d="m184.8 883.1c0 2.2-1.7 4-3.9 4-2.2 0-3.9-1.8-3.9-4 0-2.1 1.7-3.9 3.9-3.9 2.2 0 3.9 1.8 3.9 3.9z"/>
						<path id="&lt;Path&gt;" class="s5" d="m220.2 883.1c0 2.2-1.8 4-3.9 4-2.2 0-4-1.8-4-4 0-2.1 1.8-3.9 4-3.9 2.1 0 3.9 1.8 3.9 3.9z"/>
						<path id="&lt;Path&gt;" class="s5" d="m255.5 883.1c0 2.2-1.7 4-3.9 4-2.1 0-3.9-1.8-3.9-4 0-2.1 1.8-3.9 3.9-3.9 2.2 0 3.9 1.8 3.9 3.9z"/>
						<path id="&lt;Path&gt;" class="s5" d="m290.9 883.1c0 2.2-1.8 4-3.9 4-2.2 0-4-1.8-4-4 0-2.1 1.8-3.9 4-3.9 2.1 0 3.9 1.8 3.9 3.9z"/>
						<path id="&lt;Path&gt;" class="s5" d="m326.3 883.1c0 2.2-1.8 4-4 4-2.1 0-3.9-1.8-3.9-4 0-2.1 1.8-3.9 3.9-3.9 2.2 0 4 1.8 4 3.9z"/>
						<path id="&lt;Path&gt;" class="s5" d="m361.6 883.1c0 2.2-1.7 4-3.9 4-2.2 0-3.9-1.8-3.9-4 0-2.1 1.7-3.9 3.9-3.9 2.2 0 3.9 1.8 3.9 3.9z"/>
						<path id="&lt;Path&gt;" class="s5" d="m8 914.6c0 2.1-1.7 3.9-3.9 3.9-2.2 0-3.9-1.8-3.9-3.9 0-2.2 1.7-4 3.9-4 2.2 0 3.9 1.8 3.9 4z"/>
						<path id="&lt;Path&gt;" class="s5" d="m43.4 914.6c0 2.1-1.8 3.9-3.9 3.9-2.2 0-4-1.8-4-3.9 0-2.2 1.8-4 4-4 2.1 0 3.9 1.8 3.9 4z"/>
						<path id="&lt;Path&gt;" class="s5" d="m78.7 914.6c0 2.1-1.7 3.9-3.9 3.9-2.1 0-3.9-1.8-3.9-3.9 0-2.2 1.8-4 3.9-4 2.2 0 3.9 1.8 3.9 4z"/>
						<path id="&lt;Path&gt;" class="s5" d="m114.1 914.6c0 2.1-1.8 3.9-3.9 3.9-2.2 0-4-1.8-4-3.9 0-2.2 1.8-4 4-4 2.1 0 3.9 1.8 3.9 4z"/>
						<path id="&lt;Path&gt;" class="s5" d="m149.5 914.6c0 2.1-1.8 3.9-4 3.9-2.1 0-3.9-1.8-3.9-3.9 0-2.2 1.8-4 3.9-4 2.2 0 4 1.8 4 4z"/>
						<path id="&lt;Path&gt;" class="s5" d="m184.8 914.6c0 2.1-1.7 3.9-3.9 3.9-2.2 0-3.9-1.8-3.9-3.9 0-2.2 1.7-4 3.9-4 2.2 0 3.9 1.8 3.9 4z"/>
						<path id="&lt;Path&gt;" class="s5" d="m220.2 914.6c0 2.1-1.8 3.9-3.9 3.9-2.2 0-4-1.8-4-3.9 0-2.2 1.8-4 4-4 2.1 0 3.9 1.8 3.9 4z"/>
						<path id="&lt;Path&gt;" class="s5" d="m255.5 914.6c0 2.1-1.7 3.9-3.9 3.9-2.1 0-3.9-1.8-3.9-3.9 0-2.2 1.8-4 3.9-4 2.2 0 3.9 1.8 3.9 4z"/>
						<path id="&lt;Path&gt;" class="s5" d="m290.9 914.6c0 2.1-1.8 3.9-3.9 3.9-2.2 0-4-1.8-4-3.9 0-2.2 1.8-4 4-4 2.1 0 3.9 1.8 3.9 4z"/>
						<path id="&lt;Path&gt;" class="s5" d="m326.3 914.6c0 2.1-1.8 3.9-4 3.9-2.1 0-3.9-1.8-3.9-3.9 0-2.2 1.8-4 3.9-4 2.2 0 4 1.8 4 4z"/>
						<path id="&lt;Path&gt;" class="s5" d="m361.6 914.6c0 2.1-1.7 3.9-3.9 3.9-2.2 0-3.9-1.8-3.9-3.9 0-2.2 1.7-4 3.9-4 2.2 0 3.9 1.8 3.9 4z"/>
						<path id="&lt;Path&gt;" class="s5" d="m0.2 946c0-2.2 1.7-3.9 3.9-3.9 2.2 0 3.9 1.7 3.9 3.9 0 2.2-1.7 3.9-3.9 3.9-2.2 0-3.9-1.7-3.9-3.9z"/>
						<path id="&lt;Path&gt;" class="s5" d="m35.5 946c0-2.2 1.8-3.9 4-3.9 2.1 0 3.9 1.7 3.9 3.9 0 2.2-1.8 3.9-3.9 3.9-2.2 0-4-1.7-4-3.9z"/>
						<path id="&lt;Path&gt;" class="s5" d="m70.9 946c0-2.2 1.7-3.9 3.9-3.9 2.2 0 3.9 1.7 3.9 3.9 0 2.2-1.7 3.9-3.9 3.9-2.2 0-3.9-1.7-3.9-3.9z"/>
						<path id="&lt;Path&gt;" class="s5" d="m114.1 946c0 2.1-1.8 3.9-3.9 3.9-2.2 0-4-1.8-4-3.9 0-2.2 1.8-3.9 4-3.9 2.1 0 3.9 1.7 3.9 3.9z"/>
						<path id="&lt;Path&gt;" class="s5" d="m149.5 946c0 2.1-1.8 3.9-4 3.9-2.1 0-3.9-1.8-3.9-3.9 0-2.2 1.8-3.9 3.9-3.9 2.2 0 4 1.7 4 3.9z"/>
						<path id="&lt;Path&gt;" class="s5" d="m177 946c0-2.2 1.7-3.9 3.9-3.9 2.2 0 3.9 1.7 3.9 3.9 0 2.2-1.7 3.9-3.9 3.9-2.2 0-3.9-1.7-3.9-3.9z"/>
						<path id="&lt;Path&gt;" class="s5" d="m212.3 946c0-2.2 1.8-3.9 4-3.9 2.1 0 3.9 1.7 3.9 3.9 0 2.2-1.8 3.9-3.9 3.9-2.2 0-4-1.7-4-3.9z"/>
						<path id="&lt;Path&gt;" class="s5" d="m247.7 946c0-2.2 1.7-3.9 3.9-3.9 2.2 0 3.9 1.7 3.9 3.9 0 2.2-1.7 3.9-3.9 3.9-2.2 0-3.9-1.7-3.9-3.9z"/>
						<path id="&lt;Path&gt;" class="s5" d="m283 946c0-2.2 1.8-3.9 4-3.9 2.1 0 3.9 1.7 3.9 3.9 0 2.2-1.8 3.9-3.9 3.9-2.2 0-4-1.7-4-3.9z"/>
						<path id="&lt;Path&gt;" class="s5" d="m318.4 946c0-2.2 1.8-3.9 3.9-3.9 2.2 0 4 1.7 4 3.9 0 2.2-1.8 3.9-4 3.9-2.1 0-3.9-1.7-3.9-3.9z"/>
						<path id="&lt;Path&gt;" class="s5" d="m353.8 946c0-2.2 1.7-3.9 3.9-3.9 2.2 0 3.9 1.7 3.9 3.9 0 2.2-1.7 3.9-3.9 3.9-2.2 0-3.9-1.7-3.9-3.9z"/>
						<path id="&lt;Path&gt;" class="s5" d="m8 977.4c0 2.2-1.7 4-3.9 4-2.2 0-3.9-1.8-3.9-4 0-2.1 1.7-3.9 3.9-3.9 2.2 0 3.9 1.8 3.9 3.9z"/>
						<path id="&lt;Path&gt;" class="s5" d="m43.4 977.4c0 2.2-1.8 4-3.9 4-2.2 0-4-1.8-4-4 0-2.1 1.8-3.9 4-3.9 2.1 0 3.9 1.8 3.9 3.9z"/>
						<path id="&lt;Path&gt;" class="s5" d="m78.7 977.4c0 2.2-1.7 4-3.9 4-2.1 0-3.9-1.8-3.9-4 0-2.1 1.8-3.9 3.9-3.9 2.2 0 3.9 1.8 3.9 3.9z"/>
						<path id="&lt;Path&gt;" class="s5" d="m114.1 977.4c0 2.2-1.8 4-3.9 4-2.2 0-4-1.8-4-4 0-2.1 1.8-3.9 4-3.9 2.1 0 3.9 1.8 3.9 3.9z"/>
						<path id="&lt;Path&gt;" class="s5" d="m149.5 977.4c0 2.2-1.8 4-4 4-2.1 0-3.9-1.8-3.9-4 0-2.1 1.8-3.9 3.9-3.9 2.2 0 4 1.8 4 3.9z"/>
						<path id="&lt;Path&gt;" class="s5" d="m184.8 977.4c0 2.2-1.7 4-3.9 4-2.2 0-3.9-1.8-3.9-4 0-2.1 1.7-3.9 3.9-3.9 2.2 0 3.9 1.8 3.9 3.9z"/>
						<path id="&lt;Path&gt;" class="s5" d="m220.2 977.4c0 2.2-1.8 4-3.9 4-2.2 0-4-1.8-4-4 0-2.1 1.8-3.9 4-3.9 2.1 0 3.9 1.8 3.9 3.9z"/>
						<path id="&lt;Path&gt;" class="s5" d="m255.5 977.4c0 2.2-1.7 4-3.9 4-2.1 0-3.9-1.8-3.9-4 0-2.1 1.8-3.9 3.9-3.9 2.2 0 3.9 1.8 3.9 3.9z"/>
						<path id="&lt;Path&gt;" class="s5" d="m290.9 977.4c0 2.2-1.8 4-3.9 4-2.2 0-4-1.8-4-4 0-2.1 1.8-3.9 4-3.9 2.1 0 3.9 1.8 3.9 3.9z"/>
						<path id="&lt;Path&gt;" class="s5" d="m326.3 977.4c0 2.2-1.8 4-4 4-2.1 0-3.9-1.8-3.9-4 0-2.1 1.8-3.9 3.9-3.9 2.2 0 4 1.8 4 3.9z"/>
						<path id="&lt;Path&gt;" class="s5" d="m361.6 977.4c0 2.2-1.7 4-3.9 4-2.2 0-3.9-1.8-3.9-4 0-2.1 1.7-3.9 3.9-3.9 2.2 0 3.9 1.8 3.9 3.9z"/>
						<path id="&lt;Path&gt;" class="s5" d="m8 1008.9c0 2.1-1.7 3.9-3.9 3.9-2.2 0-3.9-1.8-3.9-3.9 0-2.2 1.7-4 3.9-4 2.2 0 3.9 1.8 3.9 4z"/>
						<path id="&lt;Path&gt;" class="s5" d="m43.4 1008.9c0 2.1-1.8 3.9-3.9 3.9-2.2 0-4-1.8-4-3.9 0-2.2 1.8-4 4-4 2.1 0 3.9 1.8 3.9 4z"/>
						<path id="&lt;Path&gt;" class="s5" d="m78.7 1008.9c0 2.1-1.7 3.9-3.9 3.9-2.1 0-3.9-1.8-3.9-3.9 0-2.2 1.8-4 3.9-4 2.2 0 3.9 1.8 3.9 4z"/>
						<path id="&lt;Path&gt;" class="s5" d="m114.1 1008.9c0 2.1-1.8 3.9-3.9 3.9-2.2 0-4-1.8-4-3.9 0-2.2 1.8-4 4-4 2.1 0 3.9 1.8 3.9 4z"/>
						<path id="&lt;Path&gt;" class="s5" d="m149.5 1008.9c0 2.1-1.8 3.9-4 3.9-2.1 0-3.9-1.8-3.9-3.9 0-2.2 1.8-4 3.9-4 2.2 0 4 1.8 4 4z"/>
						<path id="&lt;Path&gt;" class="s5" d="m184.8 1008.9c0 2.1-1.7 3.9-3.9 3.9-2.2 0-3.9-1.8-3.9-3.9 0-2.2 1.7-4 3.9-4 2.2 0 3.9 1.8 3.9 4z"/>
						<path id="&lt;Path&gt;" class="s5" d="m220.2 1008.9c0 2.1-1.8 3.9-3.9 3.9-2.2 0-4-1.8-4-3.9 0-2.2 1.8-4 4-4 2.1 0 3.9 1.8 3.9 4z"/>
						<path id="&lt;Path&gt;" class="s5" d="m255.5 1008.9c0 2.1-1.7 3.9-3.9 3.9-2.1 0-3.9-1.8-3.9-3.9 0-2.2 1.8-4 3.9-4 2.2 0 3.9 1.8 3.9 4z"/>
						<path id="&lt;Path&gt;" class="s5" d="m290.9 1008.9c0 2.1-1.8 3.9-3.9 3.9-2.2 0-4-1.8-4-3.9 0-2.2 1.8-4 4-4 2.1 0 3.9 1.8 3.9 4z"/>
						<path id="&lt;Path&gt;" class="s5" d="m326.3 1008.9c0 2.1-1.8 3.9-4 3.9-2.1 0-3.9-1.8-3.9-3.9 0-2.2 1.8-4 3.9-4 2.2 0 4 1.8 4 4z"/>
						<path id="&lt;Path&gt;" class="s5" d="m361.6 1008.9c0 2.1-1.7 3.9-3.9 3.9-2.2 0-3.9-1.8-3.9-3.9 0-2.2 1.7-4 3.9-4 2.2 0 3.9 1.8 3.9 4z"/>
						<path id="&lt;Path&gt;" class="s5" d="m8 1040.3c0 2.2-1.7 3.9-3.9 3.9-2.2 0-3.9-1.7-3.9-3.9 0-2.2 1.7-3.9 3.9-3.9 2.2 0 3.9 1.7 3.9 3.9z"/>
						<path id="&lt;Path&gt;" class="s5" d="m43.4 1040.3c0 2.2-1.8 3.9-3.9 3.9-2.2 0-4-1.7-4-3.9 0-2.2 1.8-3.9 4-3.9 2.1 0 3.9 1.7 3.9 3.9z"/>
						<path id="&lt;Path&gt;" class="s5" d="m78.7 1040.3c0 2.2-1.7 3.9-3.9 3.9-2.1 0-3.9-1.7-3.9-3.9 0-2.2 1.8-3.9 3.9-3.9 2.2 0 3.9 1.7 3.9 3.9z"/>
						<path id="&lt;Path&gt;" class="s5" d="m114.1 1040.3c0 2.2-1.8 3.9-3.9 3.9-2.2 0-4-1.7-4-3.9 0-2.2 1.8-3.9 4-3.9 2.1 0 3.9 1.7 3.9 3.9z"/>
						<path id="&lt;Path&gt;" class="s5" d="m149.5 1040.3c0 2.2-1.8 3.9-4 3.9-2.1 0-3.9-1.7-3.9-3.9 0-2.2 1.8-3.9 3.9-3.9 2.2 0 4 1.7 4 3.9z"/>
						<path id="&lt;Path&gt;" class="s5" d="m184.8 1040.3c0 2.2-1.7 3.9-3.9 3.9-2.2 0-3.9-1.7-3.9-3.9 0-2.2 1.7-3.9 3.9-3.9 2.2 0 3.9 1.7 3.9 3.9z"/>
						<path id="&lt;Path&gt;" class="s5" d="m220.2 1040.3c0 2.2-1.8 3.9-3.9 3.9-2.2 0-4-1.7-4-3.9 0-2.2 1.8-3.9 4-3.9 2.1 0 3.9 1.7 3.9 3.9z"/>
						<path id="&lt;Path&gt;" class="s5" d="m255.5 1040.3c0 2.2-1.7 3.9-3.9 3.9-2.1 0-3.9-1.7-3.9-3.9 0-2.2 1.8-3.9 3.9-3.9 2.2 0 3.9 1.7 3.9 3.9z"/>
						<path id="&lt;Path&gt;" class="s5" d="m290.9 1040.3c0 2.2-1.8 3.9-3.9 3.9-2.2 0-4-1.7-4-3.9 0-2.2 1.8-3.9 4-3.9 2.1 0 3.9 1.7 3.9 3.9z"/>
						<path id="&lt;Path&gt;" class="s5" d="m326.3 1040.3c0 2.2-1.8 3.9-4 3.9-2.1 0-3.9-1.7-3.9-3.9 0-2.2 1.8-3.9 3.9-3.9 2.2 0 4 1.7 4 3.9z"/>
						<path id="&lt;Path&gt;" class="s5" d="m361.6 1040.3c0 2.2-1.7 3.9-3.9 3.9-2.2 0-3.9-1.7-3.9-3.9 0-2.2 1.7-3.9 3.9-3.9 2.2 0 3.9 1.7 3.9 3.9z"/>
						<path id="&lt;Path&gt;" class="s5" d="m0.2 1071.7c0-2.1 1.7-3.9 3.9-3.9 2.2 0 3.9 1.8 3.9 3.9 0 2.2-1.7 4-3.9 4-2.2 0-3.9-1.8-3.9-4z"/>
						<path id="&lt;Path&gt;" class="s5" d="m35.5 1071.7c0-2.1 1.8-3.9 4-3.9 2.1 0 3.9 1.8 3.9 3.9 0 2.2-1.8 4-3.9 4-2.2 0-4-1.8-4-4z"/>
						<path id="&lt;Path&gt;" class="s5" d="m70.9 1071.7c0-2.1 1.7-3.9 3.9-3.9 2.2 0 3.9 1.8 3.9 3.9 0 2.2-1.7 4-3.9 4-2.2 0-3.9-1.8-3.9-4z"/>
						<path id="&lt;Path&gt;" class="s5" d="m114.1 1071.7c0 2.2-1.8 4-3.9 4-2.2 0-4-1.8-4-4 0-2.1 1.8-3.9 4-3.9 2.1 0 3.9 1.8 3.9 3.9z"/>
						<path id="&lt;Path&gt;" class="s5" d="m149.5 1071.7c0 2.2-1.8 4-4 4-2.1 0-3.9-1.8-3.9-4 0-2.1 1.8-3.9 3.9-3.9 2.2 0 4 1.8 4 3.9z"/>
						<path id="&lt;Path&gt;" class="s5" d="m177 1071.7c0-2.1 1.7-3.9 3.9-3.9 2.2 0 3.9 1.8 3.9 3.9 0 2.2-1.7 4-3.9 4-2.2 0-3.9-1.8-3.9-4z"/>
						<path id="&lt;Path&gt;" class="s5" d="m212.3 1071.7c0-2.1 1.8-3.9 4-3.9 2.1 0 3.9 1.8 3.9 3.9 0 2.2-1.8 4-3.9 4-2.2 0-4-1.8-4-4z"/>
						<path id="&lt;Path&gt;" class="s5" d="m247.7 1071.7c0-2.1 1.7-3.9 3.9-3.9 2.2 0 3.9 1.8 3.9 3.9 0 2.2-1.7 4-3.9 4-2.2 0-3.9-1.8-3.9-4z"/>
						<path id="&lt;Path&gt;" class="s5" d="m283 1071.7c0-2.1 1.8-3.9 4-3.9 2.1 0 3.9 1.8 3.9 3.9 0 2.2-1.8 4-3.9 4-2.2 0-4-1.8-4-4z"/>
						<path id="&lt;Path&gt;" class="s5" d="m318.4 1071.7c0-2.1 1.8-3.9 3.9-3.9 2.2 0 4 1.8 4 3.9 0 2.2-1.8 4-4 4-2.1 0-3.9-1.8-3.9-4z"/>
						<path id="&lt;Path&gt;" class="s5" d="m353.8 1071.7c0-2.1 1.7-3.9 3.9-3.9 2.2 0 3.9 1.8 3.9 3.9 0 2.2-1.7 4-3.9 4-2.2 0-3.9-1.8-3.9-4z"/>
						<path id="&lt;Path&gt;" class="s5" d="m8 1103.2c0 2.1-1.7 3.9-3.9 3.9-2.2 0-3.9-1.8-3.9-3.9 0-2.2 1.7-4 3.9-4 2.2 0 3.9 1.8 3.9 4z"/>
						<path id="&lt;Path&gt;" class="s5" d="m43.4 1103.2c0 2.1-1.8 3.9-3.9 3.9-2.2 0-4-1.8-4-3.9 0-2.2 1.8-4 4-4 2.1 0 3.9 1.8 3.9 4z"/>
						<path id="&lt;Path&gt;" class="s5" d="m78.7 1103.2c0 2.1-1.7 3.9-3.9 3.9-2.1 0-3.9-1.8-3.9-3.9 0-2.2 1.8-4 3.9-4 2.2 0 3.9 1.8 3.9 4z"/>
						<path id="&lt;Path&gt;" class="s5" d="m114.1 1103.2c0 2.1-1.8 3.9-3.9 3.9-2.2 0-4-1.8-4-3.9 0-2.2 1.8-4 4-4 2.1 0 3.9 1.8 3.9 4z"/>
						<path id="&lt;Path&gt;" class="s5" d="m149.5 1103.2c0 2.1-1.8 3.9-4 3.9-2.1 0-3.9-1.8-3.9-3.9 0-2.2 1.8-4 3.9-4 2.2 0 4 1.8 4 4z"/>
						<path id="&lt;Path&gt;" class="s5" d="m184.8 1103.2c0 2.1-1.7 3.9-3.9 3.9-2.2 0-3.9-1.8-3.9-3.9 0-2.2 1.7-4 3.9-4 2.2 0 3.9 1.8 3.9 4z"/>
						<path id="&lt;Path&gt;" class="s5" d="m220.2 1103.2c0 2.1-1.8 3.9-3.9 3.9-2.2 0-4-1.8-4-3.9 0-2.2 1.8-4 4-4 2.1 0 3.9 1.8 3.9 4z"/>
						<path id="&lt;Path&gt;" class="s5" d="m255.5 1103.2c0 2.1-1.7 3.9-3.9 3.9-2.1 0-3.9-1.8-3.9-3.9 0-2.2 1.8-4 3.9-4 2.2 0 3.9 1.8 3.9 4z"/>
						<path id="&lt;Path&gt;" class="s5" d="m290.9 1103.2c0 2.1-1.8 3.9-3.9 3.9-2.2 0-4-1.8-4-3.9 0-2.2 1.8-4 4-4 2.1 0 3.9 1.8 3.9 4z"/>
						<path id="&lt;Path&gt;" class="s5" d="m326.3 1103.2c0 2.1-1.8 3.9-4 3.9-2.1 0-3.9-1.8-3.9-3.9 0-2.2 1.8-4 3.9-4 2.2 0 4 1.8 4 4z"/>
						<path id="&lt;Path&gt;" class="s5" d="m361.6 1103.2c0 2.1-1.7 3.9-3.9 3.9-2.2 0-3.9-1.8-3.9-3.9 0-2.2 1.7-4 3.9-4 2.2 0 3.9 1.8 3.9 4z"/>
					</g>
				</g>
				<g id="Mockup">
				</g>
			</g>
		</g>
	</g>
</svg>